<?xml version="1.0" standalone="no"?> <!DOCTYPE svg PUBLIC "-//W3C//DTD SVG 1.0//EN" "http://www.w3.org/TR/2001/REC-SVG-20010904/DTD/svg10.dtd" > <svg xmlns="http://www.w3.org/2000/svg" width="100%" height="100%">
<defs >
<font id="metanormal" horiz-adv-x="891" ><font-face
    font-family="Meta-Normal"
    units-per-em="2048"
    panose-1="2 0 6 3 0 0 0 0 0 0"
    ascent="1894"
    descent="-426"
    alphabetic="0" />
<missing-glyph horiz-adv-x="280" />
<glyph unicode=" " glyph-name="space" horiz-adv-x="681" />
<glyph unicode="!" glyph-name="exclam" horiz-adv-x="544" d="M369 1432L330 406H207L168 1405L369 1432ZM395 115Q395 61 359 24T270 -14T182 23T145 113Q145 165 181 201T270 238T358 202T395 115Z" />
<glyph unicode="&quot;" glyph-name="quotedbl" horiz-adv-x="1062" d="M307 958V1450H455V958H307ZM608 958V1450H756V958H608Z" />
<glyph unicode="#" glyph-name="numbersign" horiz-adv-x="1138" d="M201 0L262 436H61V571H283L324 883H123V1018H344L406 1450H543L481 1018H739L801 1450H938L877 1018H1077V883H858L815 571H1016V436H795L733 0H596L657 436H399L338 0H201ZM678 571L721 883H463L420
571H678Z" />
<glyph unicode="$" glyph-name="dollar" horiz-adv-x="1134" d="M502 -219V-27Q276 -27 70 100L143 231Q315 111 502 111V662L451 678Q349 709 295 735T201 803Q113 896 113 1032Q113 1196 219 1304T502 1432V1604H623V1434Q820 1417 991 1300L918 1180Q829 1237
763 1263T623 1296V807L690 786Q785 757 841 726T938 645Q981 596 1005 530T1030 397Q1030 299 979 211T836 59Q743 -2 623 -20V-219H502ZM502 844V1292Q404 1277 350 1218T295 1067Q295 987 343 936T502 844ZM623 623V119Q691 130 743 172Q844 248 844 373Q844
545 623 623Z" />
<glyph unicode="%" glyph-name="percent" horiz-adv-x="1701" d="M453 0L1135 1395H1270L588 0H453ZM70 904T70 1067T157 1322T397 1415Q494 1415 559 1380T659 1298Q729 1211 729 1055Q729 956 701 891T608 778Q525 715 399 715Q246 715 158 809ZM983 169T983
332T1070 587T1311 680Q1407 680 1472 645T1573 563Q1642 476 1642 319Q1642 220 1614 155T1522 43Q1438 -20 1313 -20Q1160 -20 1072 74ZM557 1225Q508 1303 395 1303Q347 1303 307 1285T246 1239Q209 1188 209 1083Q209 949 254 887Q276 860 317 844T406 827Q528
827 567 918Q592 971 592 1047Q592 1160 557 1225ZM1470 489Q1423 567 1309 567Q1260 567 1220 550T1159 504Q1122 451 1122 348Q1122 286 1134 233T1167 152Q1189 125 1230 109T1319 92Q1440 92 1481 182Q1505 238 1505 311Q1505 426 1470 489Z" />
<glyph unicode="&amp;" glyph-name="ampersand" horiz-adv-x="1427" d="M1059 530L1061 678L1202 682Q1202 542 1190 459Q1174 352 1126 258L1384 2H1171L1036 133Q974 58 866 14T635 -31Q551 -31 456 -7T299 63Q232 115 196 189T160 348Q160 466 227 551Q235
561 244 570T262 588T282 605T302 621T325 636T347 650T372 664T395 677T421 691T446 705Q396 749 350 802T281 895Q248 963 248 1020Q248 1082 276 1145T356 1251Q463 1343 612 1343Q690 1343 768 1316T897 1245Q989 1159 989 1028Q989 948 950 887Q901 809 813
758L696 690L1020 369Q1038 398 1045 429T1059 530ZM514 862Q578 801 604 778Q750 848 793 932Q813 975 813 1030Q813 1116 758 1171T614 1227Q528 1227 463 1165Q420 1124 420 1040Q420 990 439 954T514 862ZM948 225L543 621Q336 523 336 336Q336 267 372 212T471
127Q538 94 639 94Q738 94 822 131T948 225Z" />
<glyph unicode="&apos;" glyph-name="quotesingle" horiz-adv-x="569" d="M211 958V1450H358V958H211Z" />
<glyph unicode="(" glyph-name="parenleft" horiz-adv-x="655" d="M485 -6Q529 -82 584 -137T721 -236L676 -317Q547 -268 443 -157T281 104Q238 214 219 365T199 657Q199 911 248 1077T393 1362Q451 1433 526 1490T676 1577L715 1499Q600 1430 525 1345T416 1133Q362
940 362 662Q362 214 485 -6Z" />
<glyph unicode=")" glyph-name="parenright" horiz-adv-x="659" d="M174 1270Q91 1416 -61 1499L-16 1581Q113 1532 216 1421T379 1159Q421 1048 441 897T461 606Q461 352 412 187T266 -98Q209 -169 134 -226T-16 -313L-55 -236Q60 -167 135 -82T244 131Q297 320
297 602Q297 1050 174 1270Z" />
<glyph unicode="*" glyph-name="asterisk" horiz-adv-x="909" d="M516 1450V1145L807 1243L846 1124L557 1026L739 782L639 705L455 956L276 705L174 782L352 1026L63 1124L102 1243L393 1145V1450H516Z" />
<glyph unicode="+" glyph-name="plus" horiz-adv-x="1024" d="M74 438V586H438V950H586V586H950V438H586V74H438V438H74Z" />
<glyph unicode="," glyph-name="comma" horiz-adv-x="546" d="M184 -287L174 -293L117 -203Q239 -144 254 -20Q244 -23 231 -23Q185 -23 152 16T119 109Q119 170 160 213T262 256Q333 256 378 201T424 59Q424 -54 346 -152Q316 -190 283 -217T184 -287Z" />
<glyph unicode="-" glyph-name="hyphen" horiz-adv-x="618" d="M117 469V625H508V469H117Z" />
<glyph unicode="." glyph-name="period" horiz-adv-x="544" d="M135 115Q135 171 174 210T270 250Q328 250 369 211T410 115Q410 57 370 15T274 -27Q216 -27 176 14T135 115Z" />
<glyph unicode="/" glyph-name="slash" horiz-adv-x="546" d="M-59 -303L471 1550H606L76 -303H-59Z" />
<glyph unicode="0" glyph-name="zero" horiz-adv-x="1095" d="M555 -35Q337 -35 216 109T94 508Q94 756 218 899T551 1042Q769 1042 890 898T1012 500Q1012 253 888 109T555 -35ZM262 535Q262 304 332 201T557 98Q844 98 844 473Q844 703 774 806T549 909Q262
909 262 535Z" />
<glyph unicode="1" glyph-name="one" horiz-adv-x="827" d="M98 801L449 1038H573V129H762V0H223V129H412V844Q387 827 362 813T301 783T250 760T188 735T133 713L98 801Z" />
<glyph unicode="2" glyph-name="two" horiz-adv-x="1095" d="M537 131H971L938 0H156V129Q240 190 299 240L461 375Q563 459 614 506T686 588Q713 633 723 663T733 743Q733 829 677 875T516 922Q442 922 374 896T207 799L193 788L127 870Q243 971 344 1016T557
1061Q719 1061 821 982T924 766Q924 700 895 633T813 510Q711 400 510 256L326 123Q424 131 537 131Z" />
<glyph unicode="3" glyph-name="three" horiz-adv-x="1095" d="M356 369H336V483H354Q517 485 561 489Q602 497 629 508Q681 530 712 582T743 700Q743 800 676 861T500 922Q396 922 301 877Q246 846 188 809L174 801L102 885Q153 930 232 973T383 1036Q449 1055
528 1055Q699 1055 808 962T918 721Q918 612 852 531T670 418L686 414Q747 393 771 382T827 346Q954 245 954 104Q954 -38 860 -143Q770 -247 641 -307Q490 -373 258 -373Q197 -373 158 -367L121 -258Q160 -264 225 -264Q340 -264 428 -248Q560 -222 668 -125Q734
-64 758 18Q774 62 774 119Q774 202 729 263T604 348Q560 362 520 365T356 369Z" />
<glyph unicode="4" glyph-name="four" horiz-adv-x="1095" d="M86 137L557 1059H735L344 293Q328 260 306 220T268 155L254 131Q295 137 334 137H696V197Q696 278 705 381L725 668L852 707V295L850 135Q887 139 918 139H1018V10H905L850 12Q852 -20 852 -47V-350L694
-397V-70L696 12Q641 10 614 10H86V137Z" />
<glyph unicode="5" glyph-name="five" horiz-adv-x="1095" d="M170 326L236 1016H842L817 881H381L346 483Q432 494 485 494Q605 494 700 451T853 317T911 104Q911 -40 829 -152T613 -324T319 -383Q242 -383 168 -362L139 -240Q202 -268 293 -268Q479 -268 607
-160T735 104Q735 231 655 301T430 371Q272 371 170 326Z" />
<glyph unicode="6" glyph-name="six" horiz-adv-x="1095" d="M297 1061Q515 1319 850 1417L889 1315Q730 1265 600 1168T401 961Q344 871 305 709Q357 757 439 786T604 815Q679 815 751 789T881 713T976 585T1012 412Q1012 222 883 94T561 -35Q352 -35 226 117T100
522Q100 680 148 811T297 1061ZM571 692Q433 692 295 584Q289 537 289 479Q289 285 360 190Q435 90 561 90Q684 90 755 176T827 408Q827 544 756 618T571 692Z" />
<glyph unicode="7" glyph-name="seven" horiz-adv-x="1095" d="M651 879H111L150 1014H1001L963 852Q868 719 819 643Q700 458 596 260Q529 131 463 -36T371 -328L174 -379Q189 -294 205 -242T262 -92Q341 104 461 324Q665 698 840 883Q723 879 651 879Z" />
<glyph unicode="8" glyph-name="eight" horiz-adv-x="1095" d="M768 762Q713 731 686 721L795 672Q1008 575 1008 369Q1008 203 880 84T545 -35Q349 -35 220 73T90 344Q90 416 116 478T187 583T278 655T379 705Q263 758 200 841T137 1022Q137 1176 251 1269T569
1362Q746 1362 854 1277T963 1051Q963 875 768 762ZM362 887Q453 811 571 770Q695 836 751 900T807 1038Q807 1132 737 1188T549 1245Q432 1245 363 1188T293 1036Q293 944 362 887ZM791 481Q757 516 690 553T479 655Q425 626 390 602T321 542T271 460T254 354Q254
233 337 160T557 86Q683 86 761 154T840 330Q840 428 791 481Z" />
<glyph unicode="9" glyph-name="nine" horiz-adv-x="1095" d="M389 -348Q307 -386 263 -399T143 -424L61 -326Q126 -316 163 -305T258 -268Q412 -198 526 -98Q691 43 764 250Q715 214 642 189T502 164Q323 164 208 284T92 592Q92 787 224 919T551 1051Q740 1051
864 915T989 551Q989 379 921 207T731 -102Q600 -254 389 -348ZM522 287Q664 287 797 399Q813 477 813 549Q813 717 739 820T541 924Q420 924 345 833T270 596Q270 451 337 369T522 287Z" />
<glyph unicode=":" glyph-name="colon" horiz-adv-x="618" d="M174 113Q174 171 214 211T313 252Q369 252 409 212T449 115Q449 56 409 16T309 -25Q252 -25 213 15T174 113ZM174 758Q174 817 214 858T313 899Q369 899 409 859T449 762Q449 704 409 664T311 623T214
662T174 758Z" />
<glyph unicode=";" glyph-name="semicolon" horiz-adv-x="620" d="M227 -287L217 -293L160 -203Q280 -144 299 -20Q287 -23 276 -23Q230 -23 197 16T164 109Q164 170 205 213T307 256Q378 256 423 201T469 59Q469 -50 391 -152Q359 -191 326 -218T227 -287ZM162
766Q162 820 202 858T299 897T397 857T438 762Q438 703 398 662T301 621T203 663T162 766Z" />
<glyph unicode="&lt;" glyph-name="less" horiz-adv-x="643" d="M553 1053L225 614L553 176L418 88L27 614L418 1141L553 1053Z" />
<glyph unicode="=" glyph-name="equal" horiz-adv-x="1363" d="M147 713V848H1217V713H147ZM147 393V528H1217V393H147Z" />
<glyph unicode="&gt;" glyph-name="greater" horiz-adv-x="643" d="M78 176L406 614L78 1053L213 1141L606 614L213 88L78 176Z" />
<glyph unicode="?" glyph-name="question" horiz-adv-x="731" d="M496 791Q355 679 406 455H268Q204 714 365 866Q385 885 425 916T488 966T530 1025T549 1114Q549 1189 497 1236T365 1284Q269 1284 168 1235Q106 1203 86 1190L18 1303Q91 1358 193 1390T395 1423Q537
1423 624 1341T711 1122Q711 1075 697 1030T663 954T615 891T567 845T522 811T496 791ZM213 113Q213 169 253 209T350 250T448 210T489 113Q489 54 449 13T352 -29T254 13T213 113Z" />
<glyph unicode="@" glyph-name="at" horiz-adv-x="1638" d="M1268 1126L1096 547Q1077 490 1077 444Q1077 403 1126 403Q1191 403 1257 466T1368 635T1413 850Q1413 967 1366 1067T1242 1234T1064 1338T856 1376Q683 1376 537 1287T308 1049T225 725Q225 590 276
469T413 261T615 125T856 74Q1008 74 1148 141T1372 322H1501Q1403 155 1230 59T856 -37Q698 -37 556 23T311 184T150 427T90 725Q90 934 193 1109T472 1386T856 1487Q995 1487 1122 1440T1343 1312T1492 1112T1548 860Q1548 758 1517 663T1435 498T1321 375T1193
295T1069 268Q1014 268 978 302T938 403H934Q877 338 819 303T678 268Q550 268 470 359T389 586Q389 693 423 796T519 982T671 1114T866 1165Q1033 1165 1094 997H1098L1135 1126H1268ZM537 600Q537 515 587 459T715 403Q799 403 874 477T991 652T1032 838Q1032
915 982 972T866 1030Q797 1030 734 988T629 882T562 742T537 600Z" />
<glyph unicode="A" glyph-name="A" horiz-adv-x="1169" d="M477 1405H696L1161 0H971L838 432H313L178 0H8L477 1405ZM510 1051L360 569H795L647 1040L580 1257L510 1051Z" />
<glyph unicode="B" glyph-name="B" horiz-adv-x="1208" d="M188 0V1405H391Q597 1405 675 1399T809 1374Q916 1337 982 1249T1049 1053Q1049 944 983 864T797 745Q876 725 912 711T983 668Q1040 623 1074 546T1108 385Q1108 269 1041 170T870 33Q813 11 760 6T551
0H188ZM549 1264H350V801H594Q707 801 758 826T840 922Q862 972 862 1030Q862 1113 819 1174T702 1251Q657 1264 549 1264ZM598 662H350V137H631Q760 137 817 167T909 283Q932 338 932 399Q932 491 885 561T762 647Q689 662 598 662Z" />
<glyph unicode="C" glyph-name="C" horiz-adv-x="1097" d="M692 1423Q896 1423 1047 1309L956 1200Q837 1288 690 1288Q448 1288 344 1047Q285 910 285 674Q285 489 330 377Q381 249 481 184T707 119Q785 119 849 140T981 209L1071 92Q895 -23 680 -23Q424 -23
263 177T102 698Q102 904 178 1070T389 1329T692 1423Z" />
<glyph unicode="D" glyph-name="D" horiz-adv-x="1280" d="M184 0V1393H465Q638 1393 728 1374T915 1284Q1153 1113 1153 694Q1153 353 993 174Q901 72 809 36T551 0H184ZM520 1255H352V139H502Q612 139 674 150Q737 161 791 197T877 285Q971 438 971 674Q971
838 945 942T850 1128Q785 1205 713 1230T520 1255Z" />
<glyph unicode="E" glyph-name="E" horiz-adv-x="1060" d="M188 0V1395H956L934 1255H358V801H840V655H358V145H977V0H188Z" />
<glyph unicode="F" glyph-name="F" horiz-adv-x="952" d="M184 0V1399H924L897 1260H354V805H805V668H354V0H184Z" />
<glyph unicode="G" glyph-name="G" horiz-adv-x="1243" d="M694 1417Q919 1417 1079 1278L1004 1174Q916 1233 848 1257T698 1282Q572 1282 481 1223T348 1044Q293 889 293 688Q293 405 391 262Q438 194 533 154T731 113Q866 113 954 168V596H672L639 735H1112V80Q1037
31 931 2T717 -27Q448 -27 285 150Q111 339 111 694Q111 1095 328 1284Q476 1417 694 1417Z" />
<glyph unicode="H" glyph-name="H" horiz-adv-x="1284" d="M178 0V1405H342V817H934V1405H1102V0H934V680H342V0H178Z" />
<glyph unicode="I" glyph-name="I" horiz-adv-x="548" d="M193 0V1405H356V0H193Z" />
<glyph unicode="J" glyph-name="J" horiz-adv-x="546" d="M199 236V1405H367V240Q367 152 362 90Q356 -7 315 -82Q246 -204 78 -262L-4 -158Q118 -108 164 -20Q184 15 191 71T199 236Z" />
<glyph unicode="K" glyph-name="K" horiz-adv-x="1169" d="M170 0V1405H340V0H170ZM348 743L889 1405H1104L539 745L1100 0H885L348 743Z" />
<glyph unicode="L" glyph-name="L" horiz-adv-x="952" d="M184 0V1405H352V141H907L885 0H184Z" />
<glyph unicode="M" glyph-name="M" horiz-adv-x="1574" d="M135 0L258 1405H504L760 487Q798 343 815 242Q837 355 866 471L1130 1405H1378L1499 0H1331L1249 1030L1239 1270Q1219 1168 1184 1049L883 0H739L461 997Q408 1192 391 1272Q381 1085 375 999L297 0H135Z" />
<glyph unicode="N" glyph-name="N" horiz-adv-x="1280" d="M174 0V1401H369L836 506Q859 462 891 389T946 264L967 213Q950 455 948 639L942 1401H1108V0H932L481 858Q355 1104 322 1194Q337 1014 340 813L348 0H174Z" />
<glyph unicode="O" glyph-name="O" horiz-adv-x="1353" d="M117 709Q117 1044 267 1237T676 1430Q964 1430 1118 1200Q1245 1011 1245 680Q1245 477 1197 342T1040 109Q962 38 878 6T684 -27Q439 -27 285 152Q117 344 117 709ZM989 1102Q949 1187 870 1240T676
1294Q578 1294 497 1250T375 1130Q303 995 303 743Q303 586 327 456T393 254Q432 188 518 145T692 102Q862 102 954 223Q1008 291 1032 389T1057 655Q1057 960 989 1102Z" />
<glyph unicode="P" glyph-name="P" horiz-adv-x="1171" d="M190 0V1405H580Q694 1405 762 1391T887 1339Q1067 1223 1067 1004Q1067 795 936 670Q877 613 804 586T600 559H354V0H190ZM532 1264H354V696H590Q677 696 725 713T809 772Q881 853 881 971Q881 1124
799 1194Q755 1231 694 1247T532 1264Z" />
<glyph unicode="Q" glyph-name="Q" horiz-adv-x="1353" d="M961 -147Q893 -106 869 -93T790 -60T664 -27Q541 -27 445 22T281 152Q113 344 113 709Q113 1044 262 1237T670 1430Q824 1430 935 1366T1112 1200Q1241 998 1241 680Q1241 477 1192 342T1034 109Q992
68 944 41Q970 33 1001 18T1077 -23T1133 -55Q1229 -113 1321 -113Q1378 -113 1405 -102L1350 -236Q1312 -254 1229 -254Q1136 -254 961 -147ZM983 1102Q891 1294 670 1294Q573 1294 491 1250T371 1130Q297 999 297 743Q297 587 322 457T389 254Q428 186 512 144T688
102Q855 102 948 223Q1002 293 1027 392T1053 655Q1053 956 983 1102Z" />
<glyph unicode="R" glyph-name="R" horiz-adv-x="1169" d="M186 0V1403H514Q651 1403 732 1381T868 1313Q1008 1201 1008 1018Q1008 844 906 739T635 633H614Q675 584 756 475L870 311L1079 0H868Q833 82 760 195Q609 423 510 543Q468 595 437 613T354 633V0H186ZM518
1262H356V737H506Q688 737 760 809Q831 874 831 1020Q831 1089 793 1149T694 1233Q621 1262 518 1262Z" />
<glyph unicode="S" glyph-name="S" horiz-adv-x="1134" d="M567 1436Q792 1436 991 1300L918 1180Q816 1246 741 1272T575 1298Q443 1298 369 1237T295 1067Q295 982 349 929T528 838L690 786Q785 757 841 726T938 645Q981 596 1005 530T1030 397Q1030 299 979
211T836 59Q700 -27 520 -27Q275 -27 70 100L143 231Q310 111 520 111Q600 111 649 124T743 172Q844 248 844 373Q844 559 592 635L451 678Q349 709 295 735T201 803Q113 896 113 1032Q113 1212 238 1324T567 1436Z" />
<glyph unicode="T" glyph-name="T" horiz-adv-x="1026" d="M47 1264V1405H977L967 1264H586V0H424V1264H47Z" />
<glyph unicode="U" glyph-name="U" horiz-adv-x="1247" d="M162 424V1405H328V506Q328 359 342 291Q361 208 434 164T627 119Q808 119 874 207Q907 249 917 297T928 446V1405H1094V428Q1094 277 1073 209T987 84Q860 -25 618 -25Q302 -25 203 178Q178 228 170
270T162 424Z" />
<glyph unicode="V" glyph-name="V" horiz-adv-x="1173" d="M504 0L31 1405H213L510 504Q538 420 562 324T592 190Q614 285 678 483L979 1405H1151L670 0H504Z" />
<glyph unicode="W" glyph-name="W" horiz-adv-x="1675" d="M381 0L49 1405H229L408 584Q437 442 483 156Q516 349 563 563L750 1405H940L1122 590Q1193 276 1206 156Q1240 373 1288 590L1462 1405H1630L1309 0H1090L915 780Q864 1011 842 1180Q813 992 770 793L598
0H381Z" />
<glyph unicode="X" glyph-name="X" horiz-adv-x="1099" d="M430 754L57 1405H256L537 885L805 1405H1001L649 766L1092 0H889L541 645L211 0H14L430 754Z" />
<glyph unicode="Y" glyph-name="Y" horiz-adv-x="1099" d="M465 557L12 1405H219L485 868Q532 775 557 711Q585 774 633 868L903 1405H1096L639 547V0H465V557Z" />
<glyph unicode="Z" glyph-name="Z" horiz-adv-x="991" d="M72 1249L119 1391H920V1247L336 276L250 141Q299 143 371 143H928L885 0H51V129L651 1116Q713 1214 741 1251Q702 1249 596 1249H72Z" />
<glyph unicode="[" glyph-name="bracketleft" horiz-adv-x="530" d="M395 1499V1376H205V-197H395V-319H57V1499H395Z" />
<glyph unicode="\" glyph-name="backslash" horiz-adv-x="757" d="M623 -88L6 1487L135 1536L752 -37L623 -88Z" />
<glyph unicode="]" glyph-name="bracketright" horiz-adv-x="530" d="M135 1376V1499H473V-319H135V-197H326V1376H135Z" />
<glyph unicode="^" glyph-name="asciicircum" horiz-adv-x="1363" d="M164 563L621 1450H743L1200 563H1049L682 1278L315 563H164Z" />
<glyph unicode="_" glyph-name="underscore" horiz-adv-x="1024" d="M0 -256V-154H1024V-256H0Z" />
<glyph unicode="`" glyph-name="grave" horiz-adv-x="692" d="M168 1520L592 1253L539 1157L80 1362L168 1520Z" />
<glyph unicode="a" glyph-name="a" horiz-adv-x="1024" d="M205 795L125 909Q332 1047 553 1047Q659 1047 731 1006T836 887Q849 854 853 819T858 713V662L850 326Q848 311 848 279Q848 185 865 143T932 76L850 -39Q797 -22 761 17T711 111Q636 36 569 5T416 -27Q325
-27 270 -7T170 55Q130 93 109 151T88 264Q88 438 230 534T629 631Q666 631 700 629V700Q700 772 694 804T668 860Q619 915 530 915Q438 915 334 870Q291 853 268 839T205 795ZM690 252L696 518Q628 522 616 522Q401 522 324 440Q266 379 266 279Q266 188 310 140T442
92Q520 92 587 135T690 252Z" />
<glyph unicode="b" glyph-name="b" horiz-adv-x="1134" d="M131 1464L305 1499Q332 1386 332 1245V1018Q332 931 328 905Q403 979 471 1010T621 1042Q803 1042 909 903T1016 524Q1016 278 905 127T610 -25Q532 -25 453 14T330 111Q323 48 301 0H141Q172 66 172
254V1223Q172 1384 131 1464ZM401 834Q390 826 383 821T370 811T360 803T353 794T347 786T339 776T330 764V240Q370 187 440 152T582 117Q634 117 686 142T766 207Q838 314 838 535Q838 727 778 809Q749 850 698 873T586 897Q491 897 401 834Z" />
<glyph unicode="c" glyph-name="c" horiz-adv-x="878" d="M545 1047Q633 1047 695 1019T823 936L735 825Q676 874 636 890T541 907Q481 907 429 876T348 793Q291 688 291 459Q291 286 355 195T543 104Q670 104 762 215L850 113Q780 40 707 9T539 -23Q322 -23 213
131Q115 272 115 494Q115 778 268 928Q387 1047 545 1047Z" />
<glyph unicode="d" glyph-name="d" horiz-adv-x="1134" d="M805 1495L965 1468V330Q965 157 975 82Q984 31 995 0H831Q816 40 809 104Q760 53 739 41Q663 -14 539 -14Q341 -14 232 121T123 502Q123 829 334 975Q428 1040 530 1040Q616 1040 688 1006T807 909Q805
993 805 1067V1495ZM803 260V801Q727 907 555 907Q431 907 365 801Q328 743 314 679T299 506Q299 373 316 304T379 186Q412 150 449 136T545 121Q608 121 651 135T741 186Q780 215 803 260Z" />
<glyph unicode="e" glyph-name="e" horiz-adv-x="1024" d="M586 111Q731 111 836 207L897 104Q756 -23 553 -23Q341 -23 221 121T100 520Q100 650 128 740T223 905Q346 1049 528 1049Q701 1049 805 936Q871 869 895 780T922 506V483H285V459Q285 307 332 236Q412
111 586 111ZM520 922Q411 922 351 842T285 604H752Q749 759 705 831Q679 873 629 897T520 922Z" />
<glyph unicode="f" glyph-name="f" horiz-adv-x="587" d="M723 1423L664 1311Q581 1358 512 1358Q445 1358 409 1312T373 1178V1012H655L606 891H373V0H205V891H106V1012H205V1180Q205 1344 317 1430Q391 1483 498 1483Q632 1483 723 1423Z" />
<glyph unicode="g" glyph-name="g" horiz-adv-x="1060" d="M817 983Q891 983 958 1028L1057 930Q969 868 885 868Q847 868 815 881Q877 802 877 707Q877 636 846 567T766 455Q728 421 671 401T557 381H535L512 373Q350 313 350 262Q350 239 372 226T432 213H596Q686
213 741 201T842 156Q954 78 954 -59Q954 -154 914 -225T799 -332Q698 -381 549 -381Q284 -381 176 -281Q106 -214 106 -121Q106 -74 127 -12L295 2L287 -14Q266 -51 266 -90Q266 -172 326 -209Q405 -256 532 -256Q698 -256 752 -178Q780 -142 780 -78Q780 8 725
45Q669 84 524 84Q502 84 442 82T367 80Q276 80 225 119T174 227Q174 289 213 327T346 397L358 401Q255 433 192 514T129 696Q129 849 233 944T506 1040Q589 1040 653 1018L723 995Q760 983 817 983ZM690 705Q690 810 646 857T502 905Q309 905 309 698Q309 500
506 500Q690 500 690 705Z" />
<glyph unicode="h" glyph-name="h" horiz-adv-x="1095" d="M162 1257Q162 1369 135 1460L295 1491Q322 1389 322 1255V1018Q322 972 315 879Q365 925 418 958Q540 1040 655 1040Q747 1040 821 995T918 879Q934 824 934 731V0H776V705Q776 811 737 856Q698 897
618 897Q544 897 466 852T322 725V0H162V1257Z" />
<glyph unicode="i" glyph-name="i" horiz-adv-x="509" d="M168 0V1016L338 1042V0H168ZM129 1333Q129 1386 165 1423T254 1460T342 1424T379 1335Q379 1283 343 1247T254 1210T166 1246T129 1333Z" />
<glyph unicode="j" glyph-name="j" horiz-adv-x="512" d="M178 35V1012L340 1044V27Q340 -61 332 -131Q326 -183 297 -236Q237 -348 102 -406L23 -299Q76 -273 109 -244Q158 -194 170 -104Q178 -51 178 35ZM131 1350Q131 1403 167 1441T256 1479T344 1442T381
1354Q381 1301 345 1264T256 1227T168 1263T131 1350Z" />
<glyph unicode="k" glyph-name="k" horiz-adv-x="1024" d="M147 1389L133 1454L293 1493Q307 1449 313 1413Q326 1302 326 1198V0H166V1163Q166 1282 147 1389ZM332 578L721 1020H922L520 578L1014 0H801L332 578Z" />
<glyph unicode="l" glyph-name="l" horiz-adv-x="509" d="M174 1174Q174 1293 169 1348T145 1456L311 1489Q323 1455 328 1403T335 1312T336 1198Q336 1182 336 1174V205Q336 145 347 124T393 102L414 106L446 2Q397 -20 344 -20Q269 -20 223 23Q196 47 185 79T174
168V1174Z" />
<glyph unicode="m" glyph-name="m" horiz-adv-x="1607" d="M172 760Q172 865 166 904T135 1008L291 1044Q328 970 328 901V893Q379 947 453 991Q546 1047 625 1047Q684 1047 738 1019T827 944Q848 915 862 877Q937 956 1024 1001T1190 1047Q1303 1047 1374 970T1446
770V0H1282V754Q1282 903 1151 903Q1076 903 1001 848Q943 803 899 762L881 745V0H719V725Q719 792 715 813T690 856Q656 897 586 897Q527 897 466 866T326 762V0H172V760Z" />
<glyph unicode="n" glyph-name="n" horiz-adv-x="1097" d="M176 760Q176 865 170 904T137 1001L293 1044Q330 963 330 885Q487 1042 651 1042Q734 1042 802 1002T901 893Q926 839 926 774V0H764V690Q764 772 757 803T727 860Q692 903 614 903Q553 903 471 861T332
760V0H176V760Z" />
<glyph unicode="o" glyph-name="o" horiz-adv-x="1124" d="M123 508Q123 757 239 899T557 1042Q785 1042 907 864Q1001 729 1001 485Q1001 336 964 237T842 63Q782 11 716 -12T563 -35Q359 -35 241 110T123 508ZM772 780Q741 844 682 877T555 911T431 881T346
801Q297 706 297 535Q297 428 314 339T360 201Q388 154 444 126T567 98Q647 98 704 138T788 252Q819 337 819 473Q819 685 772 780Z" />
<glyph unicode="p" glyph-name="p" horiz-adv-x="1134" d="M172 772Q172 946 147 1018L313 1047Q324 990 324 918V891Q452 1040 625 1040Q703 1040 774 1007T897 913Q1010 773 1010 512Q1010 392 991 312T928 160Q812 -27 612 -27Q534 -27 460 4T332 92V-395L172
-426V772ZM332 754V240Q450 106 582 106Q652 106 711 141T797 233Q840 328 840 492Q840 692 793 784Q768 836 717 866T604 897Q451 897 332 754Z" />
<glyph unicode="q" glyph-name="q" horiz-adv-x="1134" d="M815 907Q820 985 838 1022H995Q984 1002 974 918T963 741V-383L809 -416V115Q694 -18 522 -18Q384 -18 289 63Q125 199 125 479Q125 640 147 727T221 887Q278 965 357 1008T526 1051Q687 1051 815 907ZM809
276V762Q768 827 696 867T549 907Q482 907 427 874T342 782Q316 731 306 674T295 516Q295 364 320 292T391 178Q453 119 561 119Q640 119 704 160T809 276Z" />
<glyph unicode="r" glyph-name="r" horiz-adv-x="657" d="M178 778Q178 865 171 909T141 1004L301 1047Q321 1004 328 974T336 895V881Q392 960 468 1005T623 1051Q635 1051 648 1049T670 1043L678 1040L612 866Q585 874 567 874Q470 874 397 801Q362 766 350
734T338 639V0H178V778Z" />
<glyph unicode="s" glyph-name="s" horiz-adv-x="913" d="M461 1061Q539 1061 623 1039T772 979L713 860Q635 897 577 915T457 934Q370 934 317 888T264 766Q264 710 293 676Q323 637 412 618L547 590Q685 559 752 489T819 305Q819 156 713 64T434 -29Q337 -29
238 -2T59 74L121 193Q279 96 444 96Q538 96 594 143T651 272Q651 342 611 382T483 440L356 467Q230 494 164 569T98 748Q98 886 199 973T461 1061Z" />
<glyph unicode="t" glyph-name="t" horiz-adv-x="659" d="M350 1022H608L559 897H344V242Q344 157 372 124T475 90Q537 90 578 111L600 8Q520 -33 420 -33Q347 -33 287 -4Q234 22 211 71T188 199V897H55V1022H188V1034Q188 1091 203 1247L205 1274L371 1311Q350
1157 350 1022Z" />
<glyph unicode="u" glyph-name="u" horiz-adv-x="1097" d="M174 262V1012L332 1042V309Q332 233 344 199T391 141Q450 102 518 102Q593 102 665 153T778 287V1010L936 1036V313Q936 225 940 189T961 123Q973 95 1006 66L903 -43Q852 -1 828 35T793 121Q677 -35
469 -35Q372 -35 301 3T201 111Q174 166 174 262Z" />
<glyph unicode="v" glyph-name="v" horiz-adv-x="987" d="M408 -10L41 1012L205 1047L442 344Q473 249 492 170H496Q511 245 545 342L776 1016L946 1018L565 -10H408Z" />
<glyph unicode="w" glyph-name="w" horiz-adv-x="1427" d="M328 -8L45 1012L205 1047L369 373L406 203H412Q426 276 446 350L631 1026H801L981 342Q1013 210 1022 193H1026Q1027 195 1057 334L1219 1018H1386L1098 -8H946L709 821H705Q692 750 682 717L477 -8H328Z" />
<glyph unicode="x" glyph-name="x" horiz-adv-x="915" d="M375 565L61 1016H258L459 680L653 1016H840L539 565L930 0H735L459 434L182 0H-6L375 565Z" />
<glyph unicode="y" glyph-name="y" horiz-adv-x="948" d="M252 358L33 997L190 1051L399 389Q412 346 427 283T452 177L461 135H465L528 350L729 1018H911L561 -37Q491 -245 399 -332Q330 -398 231 -420L184 -311Q216 -305 258 -278T328 -219Q381 -152 420 2L354
-8Q345 42 312 162T252 358Z" />
<glyph unicode="z" glyph-name="z" horiz-adv-x="878" d="M106 891V1018H786V887L256 123H819L743 0H63V123L618 891H106Z" />
<glyph unicode="{" glyph-name="braceleft" horiz-adv-x="681" d="M602 1499V1376H492Q451 1376 428 1351T398 1294T391 1214V854Q391 802 377 758T343 686T297 637T252 606T215 592V588Q232 586 251 578T297 551T343 503T377 428T391 324V-35Q391 -197 492 -197H602V-319H459Q375
-319 310 -250T244 -63V295Q244 400 191 464T68 528V651Q136 651 190 716T244 883V1243Q244 1359 311 1429T459 1499H602Z" />
<glyph unicode="|" glyph-name="bar" horiz-adv-x="454" d="M160 -37V1548H295V-37H160Z" />
<glyph unicode="}" glyph-name="braceright" horiz-adv-x="681" d="M80 1376V1499H223Q303 1499 370 1429T438 1243V883Q438 781 492 716T614 651V528Q545 528 492 464T438 295V-63Q438 -180 373 -249T223 -319H80V-197H190Q291 -197 291 -35V324Q291 381 305
428T339 503T385 550T430 578T467 588V592Q450 596 431 606T385 637T339 685T305 757T291 854V1214Q291 1261 285 1293T255 1351T190 1376H80Z" />
<glyph unicode="~" glyph-name="asciitilde" horiz-adv-x="1363" d="M1085 762L1153 664Q1127 628 1114 611T1072 565T1022 521T966 495T895 483Q860 483 821 493T757 514T686 545Q675 550 632 570T570 598T517 614T451 623Q343 623 279 479L211 578Q241 621 260
644T313 698T384 743T467 758Q502 758 541 748T605 727T676 696Q691 689 731 671T791 644T846 627T911 618Q1017 618 1085 762Z" />
</font>
</defs>
</svg>
